<svg id="visual" viewBox="0 0 900 300" width="900" height="300" xmlns="http://www.w3.org/2000/svg" xmlns:xlink="http://www.w3.org/1999/xlink" version="1.1"><path d="M0 118L13.7 106.5C27.3 95 54.7 72 82 62.5C109.3 53 136.7 57 163.8 56C191 55 218 49 245.2 55.5C272.3 62 299.7 81 327 80C354.3 79 381.7 58 409 59C436.3 60 463.7 83 491 89C518.3 95 545.7 84 573 80C600.3 76 627.7 79 654.8 80C682 81 709 80 736.2 75.5C763.3 71 790.7 63 818 63.5C845.3 64 872.7 73 886.3 77.5L900 82L900 0L886.3 0C872.7 0 845.3 0 818 0C790.7 0 763.3 0 736.2 0C709 0 682 0 654.8 0C627.7 0 600.3 0 573 0C545.7 0 518.3 0 491 0C463.7 0 436.3 0 409 0C381.7 0 354.3 0 327 0C299.7 0 272.3 0 245.2 0C218 0 191 0 163.8 0C136.7 0 109.3 0 82 0C54.7 0 27.3 0 13.7 0L0 0Z" fill="#ffffff"></path><path d="M0 301L13.7 301C27.3 301 54.7 301 82 301C109.3 301 136.7 301 163.8 301C191 301 218 301 245.2 301C272.3 301 299.7 301 327 301C354.3 301 381.7 301 409 301C436.3 301 463.7 301 491 301C518.3 301 545.7 301 573 301C600.3 301 627.7 301 654.8 301C682 301 709 301 736.2 301C763.3 301 790.7 301 818 301C845.3 301 872.7 301 886.3 301L900 301L900 242L886.3 245.5C872.7 249 845.3 256 818 261C790.7 266 763.3 269 736.2 266.5C709 264 682 256 654.8 255.5C627.7 255 600.3 262 573 264C545.7 266 518.3 263 491 258.5C463.7 254 436.3 248 409 244C381.7 240 354.3 238 327 238C299.7 238 272.3 240 245.2 240.5C218 241 191 240 163.8 244.5C136.7 249 109.3 259 82 261.5C54.7 264 27.3 259 13.7 256.5L0 254Z" fill="#00000"></path></svg>